<?xml version="1.0" encoding="iso-8859-1"?>
<svg xmlns="http://www.w3.org/2000/svg" xmlns:xlink="http://www.w3.org/1999/xlink" version="1.1" viewBox="0 0 319.982 319.982" width="10px" height="10px">
<g>
	<path d="M234.991,319.982c2.618,0,5.22-1.078,7.071-2.929s2.929-4.453,2.929-7.071v-140h65   c3.922-0.008,7.721-2.552,9.221-6.176s0.61-8.109-2.159-10.886l-150-150C165.202,1.074,162.604,0,159.991,0   c-2.614,0-5.212,1.074-7.062,2.92l-150,150c-2.769,2.777-3.659,7.263-2.159,10.886c1.5,3.624,5.299,6.168,9.221,6.176h65v140   c0,2.618,1.078,5.22,2.929,7.071s4.453,2.929,7.071,2.929H234.991z" fill="#3A5F3F"/>
</g>
</svg>
