<?xml version="1.0" encoding="iso-8859-1"?>
<!-- Generator: Adobe Illustrator 19.1.0, SVG Export Plug-In . SVG Version: 6.00 Build 0)  -->
<svg version="1.1" xmlns="http://www.w3.org/2000/svg" xmlns:xlink="http://www.w3.org/1999/xlink" viewBox="0 0 319.982 319.982" width="10px" height="10px">
<g>
	<path d="M84.991,0c-2.618,0-5.22,1.078-7.071,2.929S74.991,7.382,74.991,10v140h-65	c-3.922,0.008-7.721,2.552-9.221,6.176s-0.61,8.109,2.159,10.886l150,150c1.851,1.846,4.449,2.92,7.062,2.92 c2.614,0,5.212-1.074,7.062-2.92l150-150c2.769-2.777,3.659-7.263,2.159-10.886c-1.5-3.624-5.299-6.168-9.221-6.176h-65V10	c0-2.618-1.078-5.22-2.929-7.071C240.211,1.078,237.609,0,234.991,0L84.991,0L84.991,0z" fill="#3A5F3F"/>
</g>
</svg>
